<svg xmlns="http://www.w3.org/2000/svg" version="1.1" xmlns:xlink="http://www.w3.org/1999/xlink" viewBox="1.75 0.65 5.63 0.85"><g transform="matrix(0.6967095663140878,0,0,0.6967095663140878,1.707556732430648,0.8252181288908309)"><g transform="matrix(1,0,0,1,0,0)" clip-path="url(#SvgjsClipPath180064)"><g clip-path="url(#SvgjsClipPath180062728fab15-41a4-4f94-a796-ec905af0b6fa)"><path d=" M 3.982347305653409 -0.24609999999999999 C 4.085275101433885 -0.24673921369284488 4.180658995212342 -0.19219458309411247 4.232308301406059 -0.10316150548763972 C 4.283957607599775 -0.014128427881167027 4.283957607599775 0.09574970424480345 4.232308301406059 0.1847827818512761 C 4.180658995212342 0.2738158594577488 4.085275101433885 0.32836049005648127 3.982347305653409 0.32772127636363635 L 3.748866214744318 0.32772127636363635 C 3.7193853913633066 0.32772127636363635 3.6954864620170453 0.303822347017375 3.6954864620170453 0.27434152363636355 L 3.6954864620170453 0.04086043272727269 C 3.695462014610219 -0.11759467316460981 3.8238922008211595 -0.24606944630956948 3.98234730565334 -0.24609999999999999 Z M 3.7910809238352274 0.2755587236363637 C 3.815092150009355 0.2755587236363636 3.8345570947443184 0.2560937789014007 3.8345570947443184 0.23208255272727263 C 3.8345570947443184 0.2080713265531446 3.815092150009355 0.1886063818181818 3.7910809238352274 0.18860638181818173 C 3.7670696976610993 0.18860638181818173 3.7476047529261365 0.20807132655314453 3.7476047529261365 0.23208255272727257 C 3.747604752754317 0.24361314951960034 3.7521852645877036 0.254671483776447 3.760338628107288 0.26282484753902036 C 3.768491991626872 0.2709782113015936 3.7795503257472087 0.27555872346454424 3.7910809231873817 0.2755587236363637 Z" fill="url(#gradient-d85facd7-8f12-413f-8e2b-1c565249a263_0)" transform="matrix(1,0,0,1,0,0)" fill-rule="evenodd"></path></g><g clip-path="url(#SvgjsClipPath180062728fab15-41a4-4f94-a796-ec905af0b6fa)"><path d=" M 3.338979647471591 -0.24609999999999999 C 3.236051851691115 -0.24673921369284488 3.1406679579126577 -0.19219458309411247 3.0890186517189413 -0.10316150548763972 C 3.037369345525225 -0.014128427881166972 3.037369345525225 0.0957497042448035 3.0890186517189413 0.18478278185127617 C 3.1406679579126577 0.2738158594577489 3.236051851691115 0.32836049005648127 3.338979647471591 0.32772127636363635 L 3.572460738380682 0.32772127636363635 C 3.6019415617616932 0.32772127636363635 3.6258404911079545 0.303822347017375 3.6258404911079545 0.27434152363636355 L 3.6258404911079545 0.04086043272727269 C 3.62585516608827 -0.03523344957327587 3.5956403049660746 -0.10821639243085851 3.541843142938409 -0.162032231146368 C 3.4880459809107442 -0.2158480698618775 3.4150735302813633 -0.24608826215507051 3.338979647471327 -0.24609999999999999 Z M 3.530246029289773 0.2755587236363637 C 3.5478315052526113 0.27556319945121033 3.5636878905445393 0.2649734086994908 3.570420662407992 0.24872783182739483 C 3.5771534342714455 0.23248225495529884 3.5734365294568886 0.21378056408813945 3.561003302492036 0.2013441718414729 C 3.5485700755271834 0.1889077795948063 3.5298693314043317 0.18518611438378907 3.5136220412309505 0.19191475071624492 C 3.4973747510575697 0.19864338704870083 3.4867809244048145 0.2144970761948472 3.4867809238352274 0.23208255272727263 C 3.486780923035317 0.2560894581958886 3.5062391245178386 0.27555261343190796 3.5302460292493234 0.27555872363635325 Z" fill="url(#gradient-d85facd7-8f12-413f-8e2b-1c565249a263_1)" transform="matrix(1,0,0,1,0,0)" fill-rule="evenodd"></path></g><g clip-path="url(#SvgjsClipPath180062728fab15-41a4-4f94-a796-ec905af0b6fa)"><path d=" M 3.982347305653409 0.9710999999999999 C 4.085275101433885 0.9717392136928449 4.180658995212342 0.9171945830941122 4.232308301406059 0.8281615054876397 C 4.283957607599775 0.739128427881167 4.283957607599775 0.6292502957551965 4.232308301406059 0.5402172181487237 C 4.180658995212342 0.4511841405422511 4.085275101433885 0.3966395099435187 3.982347305653409 0.39727872363636363 L 3.748866214744318 0.39727872363636363 C 3.7193853913633066 0.39727872363636363 3.6954864620170453 0.4211776529826248 3.6954864620170453 0.4506584763636363 L 3.6954864620170453 0.6841395672727273 C 3.695462014610219 0.8425946731646097 3.8238922008211595 0.971069446309569 3.98234730565334 0.9710999999999999 Z M 3.7910809238352274 0.5363825527272726 C 3.808666400367653 0.5363825521576856 3.824520089513799 0.5257887255049304 3.831248725846255 0.5095414353315493 C 3.837977362178711 0.4932941451581684 3.834255696967694 0.47459340103531666 3.821819304721027 0.46216017407046395 C 3.8093829124743603 0.44972694710561134 3.7906812216072012 0.4460100422910547 3.774435644735105 0.4527428141545078 C 3.7581900678630094 0.4594755860179609 3.7476002771112897 0.4753319713098887 3.7476047529261365 0.4929174472727271 C 3.747604752541971 0.5044470274003294 3.752185617645436 0.5155042243133214 3.7603392995206377 0.5236558309471552 C 3.76849298139584 0.531807437580989 3.7795513440018067 0.5363854879459128 3.791080923795505 0.5363825527272826 Z" fill="url(#gradient-d85facd7-8f12-413f-8e2b-1c565249a263_2)" transform="matrix(1,0,0,1,0,0)" fill-rule="evenodd"></path></g><g clip-path="url(#SvgjsClipPath180062728fab15-41a4-4f94-a796-ec905af0b6fa)"><path d=" M 3.338979647471591 0.9710999999999999 C 3.236051851691115 0.9717392136928449 3.1406679579126577 0.9171945830941122 3.0890186517189413 0.8281615054876397 C 3.037369345525225 0.739128427881167 3.037369345525225 0.6292502957551963 3.0890186517189413 0.5402172181487237 C 3.1406679579126577 0.451184140542251 3.236051851691115 0.3966395099435186 3.338979647471591 0.39727872363636363 L 3.572460738380682 0.39727872363636363 C 3.6019415617616932 0.39727872363636363 3.6258404911079545 0.4211776529826248 3.6258404911079545 0.4506584763636363 L 3.6258404911079545 0.6841395672727273 C 3.625855166088314 0.7602334495731105 3.5956403049661603 0.8332163924307108 3.541843142938526 0.8870322311462513 C 3.488045980910892 0.9408480698617914 3.4150735302815285 0.9710882621550267 3.338979647471492 0.9710999999999999 Z M 3.530246029289773 0.5363825527272726 C 3.5478325121133056 0.5363870282289084 3.5636895972667197 0.5257960398980427 3.5704217204525017 0.5095491043240956 C 3.5771538436382837 0.49330216875014843 3.5734349102707634 0.4745996096205771 3.560999388606343 0.46216408795615704 C 3.548563866941923 0.44972856629173663 3.5298613078123515 0.44600963292421636 3.513614372238404 0.45274175610999823 C 3.497367436664457 0.45947387929578 3.4867764483335915 0.4753309644491944 3.4867809238352274 0.49291744727272724 C 3.486787032140466 0.5169200315668785 3.5062434449955995 0.5363764444220216 3.5302460292897617 0.5363825527272726 Z" fill="url(#gradient-d85facd7-8f12-413f-8e2b-1c565249a263_3)" transform="matrix(1,0,0,1,0,0)" fill-rule="evenodd"></path></g></g><g><path d=" M 0.256 0.36699999999999994 L 0.256 0.716 L 0.061 0.716 L 0.061 0.006000000000000005 L 0.213 0.006000000000000005 L 0.498 0.36699999999999994 L 0.498 0.006000000000000005 L 0.6930000000000001 0.006000000000000005 L 0.6930000000000001 0.716 L 0.538 0.716 L 0.256 0.36699999999999994 M 0.9820283203125 0.006000000000000005 L 1.2000283203125 0.006000000000000005 L 1.4260283203125002 0.716 L 1.2280283203125 0.716 L 1.1850283203125 0.577 L 0.9960283203125 0.577 L 0.9540283203125 0.716 L 0.7550283203125 0.716 L 0.9820283203125 0.006000000000000005 M 1.1540283203125 0.44699999999999995 L 1.0910283203125 0.19699999999999995 L 1.0250283203125 0.44699999999999995 L 1.1540283203125 0.44699999999999995 M 1.6830205078125 0.36699999999999994 L 1.6830205078125 0.716 L 1.4880205078125 0.716 L 1.4880205078125 0.006000000000000005 L 1.6400205078125 0.006000000000000005 L 1.9250205078125 0.36699999999999994 L 1.9250205078125 0.006000000000000005 L 2.1200205078125 0.006000000000000005 L 2.1200205078125 0.716 L 1.9650205078125 0.716 L 1.6830205078125 0.36699999999999994 M 2.5650488281249997 0.722 Q 2.4840488281249997 0.722 2.418048828125 0.6915 Q 2.352048828125 0.6609999999999999 2.3045488281249997 0.6094999999999999 Q 2.257048828125 0.5579999999999999 2.2315488281249998 0.49349999999999994 Q 2.2060488281249997 0.42899999999999994 2.2060488281249997 0.36 Q 2.2060488281249997 0.289 2.233048828125 0.22499999999999998 Q 2.260048828125 0.16099999999999992 2.3085488281249997 0.11049999999999993 Q 2.357048828125 0.05999999999999994 2.423548828125 0.030999999999999917 Q 2.490048828125 0.0020000000000000018 2.569048828125 0.0020000000000000018 Q 2.650048828125 0.0020000000000000018 2.716048828125 0.03249999999999997 Q 2.7820488281249998 0.06299999999999994 2.829048828125 0.11499999999999999 Q 2.876048828125 0.16699999999999993 2.9015488281249997 0.23149999999999998 Q 2.927048828125 0.296 2.927048828125 0.364 Q 2.927048828125 0.43399999999999994 2.900548828125 0.498 Q 2.874048828125 0.5619999999999999 2.825548828125 0.6124999999999999 Q 2.777048828125 0.6629999999999999 2.711048828125 0.6925 Q 2.6450488281249998 0.722 2.5650488281249997 0.722 M 2.404048828125 0.362 Q 2.404048828125 0.39799999999999996 2.414048828125 0.43149999999999994 Q 2.4240488281249997 0.46499999999999997 2.444048828125 0.49149999999999994 Q 2.4640488281249997 0.518 2.4945488281249997 0.5335 Q 2.525048828125 0.5489999999999999 2.567048828125 0.5489999999999999 Q 2.6090488281249997 0.5489999999999999 2.640048828125 0.5329999999999999 Q 2.671048828125 0.5169999999999999 2.690548828125 0.48949999999999994 Q 2.710048828125 0.46199999999999997 2.7195488281249998 0.42849999999999994 Q 2.729048828125 0.39499999999999996 2.729048828125 0.36 Q 2.729048828125 0.32399999999999995 2.719048828125 0.291 Q 2.709048828125 0.25799999999999995 2.689048828125 0.23149999999999998 Q 2.6690488281249998 0.20499999999999996 2.638048828125 0.18999999999999995 Q 2.607048828125 0.17499999999999993 2.566048828125 0.17499999999999993 Q 2.5240488281249998 0.17499999999999993 2.493548828125 0.19099999999999995 Q 2.463048828125 0.20699999999999996 2.443048828125 0.23349999999999999 Q 2.4230488281249998 0.25999999999999995 2.4135488281249997 0.2935 Q 2.404048828125 0.32699999999999996 2.404048828125 0.362" fill="#102036" fill-rule="nonzero"></path></g><g><path d=" M 4.8602634765624995 0.23799999999999993 Q 4.8602634765624995 0.23799999999999993 4.8432634765625 0.22799999999999998 Q 4.8262634765625 0.21799999999999997 4.7982634765625 0.2054999999999999 Q 4.7702634765625 0.19299999999999995 4.7372634765625 0.18299999999999994 Q 4.7042634765625 0.17299999999999993 4.6722634765625 0.17299999999999993 Q 4.6472634765625 0.17299999999999993 4.6312634765625 0.18099999999999994 Q 4.6152634765625 0.18899999999999995 4.6152634765625 0.20799999999999996 Q 4.6152634765625 0.22599999999999998 4.6312634765625 0.23699999999999993 Q 4.6472634765625 0.24799999999999994 4.6767634765625 0.25699999999999995 Q 4.7062634765624995 0.26599999999999996 4.7472634765625 0.27899999999999997 Q 4.8132634765625 0.299 4.8612634765625 0.32499999999999996 Q 4.9092634765625 0.351 4.9352634765625 0.39149999999999996 Q 4.961263476562499 0.43199999999999994 4.961263476562499 0.499 Q 4.961263476562499 0.563 4.9382634765625 0.6064999999999999 Q 4.9152634765625 0.6499999999999999 4.8762634765624995 0.6759999999999999 Q 4.8372634765625 0.702 4.7892634765625 0.7135 Q 4.7412634765625 0.725 4.6912634765625 0.725 Q 4.6402634765625 0.725 4.584763476562499 0.7145 Q 4.5292634765625 0.704 4.4772634765624995 0.6855 Q 4.4252634765625 0.6669999999999999 4.3822634765625 0.642 L 4.4662634765625 0.471 Q 4.4662634765625 0.471 4.4862634765625 0.483 Q 4.5062634765625 0.495 4.5392634765625 0.51 Q 4.5722634765625 0.5249999999999999 4.6127634765625 0.5369999999999999 Q 4.6532634765625 0.5489999999999999 4.6942634765625 0.5489999999999999 Q 4.7262634765625 0.5489999999999999 4.7387634765625 0.5405 Q 4.7512634765624995 0.532 4.7512634765624995 0.518 Q 4.7512634765624995 0.497 4.7292634765625 0.48549999999999993 Q 4.7072634765625 0.474 4.6717634765625 0.46349999999999997 Q 4.6362634765625 0.45299999999999996 4.5932634765625 0.43899999999999995 Q 4.5312634765625 0.418 4.4912634765625 0.39149999999999996 Q 4.4512634765625 0.36499999999999994 4.4322634765624995 0.32849999999999996 Q 4.413263476562499 0.292 4.413263476562499 0.23999999999999994 Q 4.413263476562499 0.16099999999999992 4.4502634765625 0.10799999999999998 Q 4.4872634765625 0.05499999999999994 4.5477634765624995 0.02749999999999997 Q 4.6082634765625 0 4.6782634765625 0 Q 4.7302634765625 0 4.7787634765625 0.012499999999999956 Q 4.8272634765625 0.02499999999999991 4.8697634765624995 0.04299999999999993 Q 4.9122634765625 0.06099999999999994 4.9442634765625 0.07699999999999996 L 4.8602634765624995 0.23799999999999993 M 5.60326787109375 0.17599999999999993 L 5.39926787109375 0.17599999999999993 L 5.39926787109375 0.716 L 5.20426787109375 0.716 L 5.20426787109375 0.17599999999999993 L 4.99926787109375 0.17599999999999993 L 4.99926787109375 0.006000000000000005 L 5.60326787109375 0.006000000000000005 L 5.60326787109375 0.17599999999999993 M 5.9872913085937505 0.722 Q 5.90229130859375 0.722 5.84129130859375 0.694 Q 5.78029130859375 0.6659999999999999 5.74179130859375 0.617 Q 5.70329130859375 0.568 5.68529130859375 0.5045 Q 5.66729130859375 0.44099999999999995 5.66729130859375 0.37099999999999994 L 5.66729130859375 0.006000000000000005 L 5.8622913085937505 0.006000000000000005 L 5.8622913085937505 0.37099999999999994 Q 5.8622913085937505 0.40599999999999997 5.86929130859375 0.43799999999999994 Q 5.87629130859375 0.47 5.89129130859375 0.495 Q 5.90629130859375 0.52 5.92979130859375 0.5345 Q 5.95329130859375 0.5489999999999999 5.9872913085937505 0.5489999999999999 Q 6.02229130859375 0.5489999999999999 6.04629130859375 0.5345 Q 6.07029130859375 0.52 6.08479130859375 0.49449999999999994 Q 6.09929130859375 0.469 6.10629130859375 0.43699999999999994 Q 6.11329130859375 0.40499999999999997 6.11329130859375 0.37099999999999994 L 6.11329130859375 0.006000000000000005 L 6.30829130859375 0.006000000000000005 L 6.30829130859375 0.37099999999999994 Q 6.30829130859375 0.44499999999999995 6.28879130859375 0.5089999999999999 Q 6.2692913085937505 0.573 6.23029130859375 0.621 Q 6.19129130859375 0.6689999999999999 6.13079130859375 0.6955 Q 6.07029130859375 0.722 5.9872913085937505 0.722 M 6.423272265625 0.716 L 6.423272265625 0.006000000000000005 L 6.696272265625 0.006000000000000005 Q 6.814272265625 0.006000000000000005 6.8937722656250005 0.05349999999999999 Q 6.973272265625 0.10099999999999998 7.013772265625001 0.1815 Q 7.054272265625 0.26199999999999996 7.054272265625 0.36 Q 7.054272265625 0.46799999999999997 7.009772265625 0.5479999999999999 Q 6.965272265625 0.628 6.884772265625 0.6719999999999999 Q 6.804272265625 0.716 6.696272265625 0.716 L 6.423272265625 0.716 M 6.856272265625 0.36 Q 6.856272265625 0.30499999999999994 6.837272265625 0.26349999999999996 Q 6.8182722656250005 0.22199999999999998 6.782272265625 0.19899999999999995 Q 6.7462722656250005 0.17599999999999993 6.696272265625 0.17599999999999993 L 6.618272265625 0.17599999999999993 L 6.618272265625 0.5459999999999999 L 6.696272265625 0.5459999999999999 Q 6.747272265625 0.5459999999999999 6.782772265625 0.522 Q 6.8182722656250005 0.498 6.837272265625 0.45549999999999996 Q 6.856272265625 0.413 6.856272265625 0.36 M 7.14227568359375 0.716 L 7.14227568359375 0.006000000000000005 L 7.3372756835937505 0.006000000000000005 L 7.3372756835937505 0.716 L 7.14227568359375 0.716 M 7.782292285156251 0.722 Q 7.70129228515625 0.722 7.63529228515625 0.6915 Q 7.5692922851562505 0.6609999999999999 7.52179228515625 0.6094999999999999 Q 7.474292285156251 0.5579999999999999 7.448792285156251 0.49349999999999994 Q 7.423292285156251 0.42899999999999994 7.423292285156251 0.36 Q 7.423292285156251 0.289 7.450292285156251 0.22499999999999998 Q 7.47729228515625 0.16099999999999992 7.525792285156251 0.11049999999999993 Q 7.57429228515625 0.05999999999999994 7.64079228515625 0.030999999999999917 Q 7.70729228515625 0.0020000000000000018 7.78629228515625 0.0020000000000000018 Q 7.867292285156251 0.0020000000000000018 7.93329228515625 0.03249999999999997 Q 7.99929228515625 0.06299999999999994 8.04629228515625 0.11499999999999999 Q 8.09329228515625 0.16699999999999993 8.11879228515625 0.23149999999999998 Q 8.14429228515625 0.296 8.14429228515625 0.364 Q 8.14429228515625 0.43399999999999994 8.11779228515625 0.498 Q 8.09129228515625 0.5619999999999999 8.042792285156251 0.6124999999999999 Q 7.99429228515625 0.6629999999999999 7.9282922851562505 0.6925 Q 7.862292285156251 0.722 7.782292285156251 0.722 M 7.62129228515625 0.362 Q 7.62129228515625 0.39799999999999996 7.631292285156251 0.43149999999999994 Q 7.641292285156251 0.46499999999999997 7.66129228515625 0.49149999999999994 Q 7.681292285156251 0.518 7.711792285156251 0.5335 Q 7.742292285156251 0.5489999999999999 7.78429228515625 0.5489999999999999 Q 7.82629228515625 0.5489999999999999 7.857292285156251 0.5329999999999999 Q 7.8882922851562505 0.5169999999999999 7.90779228515625 0.48949999999999994 Q 7.92729228515625 0.46199999999999997 7.93679228515625 0.42849999999999994 Q 7.94629228515625 0.39499999999999996 7.94629228515625 0.36 Q 7.94629228515625 0.32399999999999995 7.9362922851562505 0.291 Q 7.926292285156251 0.25799999999999995 7.90629228515625 0.23149999999999998 Q 7.886292285156251 0.20499999999999996 7.85529228515625 0.18999999999999995 Q 7.82429228515625 0.17499999999999993 7.78329228515625 0.17499999999999993 Q 7.74129228515625 0.17499999999999993 7.71079228515625 0.19099999999999995 Q 7.68029228515625 0.20699999999999996 7.660292285156251 0.23349999999999999 Q 7.64029228515625 0.25999999999999995 7.63079228515625 0.2935 Q 7.62129228515625 0.32699999999999996 7.62129228515625 0.362" fill="#102036" fill-rule="nonzero"></path></g><g></g></g><defs><clipPath id="SvgjsClipPath180064"><path d=" M 3.0520634765625 -0.24609999999999999 h 1.2171999999999998 v 1.2171999999999998 h -1.2171999999999998 Z"></path></clipPath><clipPath id="SvgjsClipPath180062728fab15-41a4-4f94-a796-ec905af0b6fa"><path d=" M 3.0520634765625 -0.24609999999999999 L 4.2692634765625 -0.24609999999999999 L 4.2692634765625 0.9710999999999999 L 3.0520634765625 0.9710999999999999 Z"></path></clipPath><linearGradient id="gradient-d85facd7-8f12-413f-8e2b-1c565249a263_0" x1="0" x2="1" y1="0" y2="1"><stop stop-color="#2c688e" offset="0"></stop><stop stop-color="#1a3a56" offset="1"></stop></linearGradient><linearGradient id="gradient-d85facd7-8f12-413f-8e2b-1c565249a263_1" x1="0" x2="1" y1="0" y2="1"><stop stop-color="#3682ae" offset="0"></stop><stop stop-color="#245375" offset="1"></stop></linearGradient><linearGradient id="gradient-d85facd7-8f12-413f-8e2b-1c565249a263_2" x1="0" x2="1" y1="0" y2="1"><stop stop-color="#214e6e" offset="0"></stop><stop stop-color="#102036" offset="1"></stop></linearGradient><linearGradient id="gradient-d85facd7-8f12-413f-8e2b-1c565249a263_3" x1="0" x2="1" y1="0" y2="1"><stop stop-color="#2c688e" offset="0"></stop><stop stop-color="#1a3a56" offset="1"></stop></linearGradient></defs></svg>
